<svg xmlns="http://www.w3.org/2000/svg" width="180" height="53" viewBox="0 0 180 53">
    <g fill="none" fill-rule="evenodd">
        <g>
            <g>
                <path fill="#E52127" d="M23.109 49.106l.001-.002-.013-.008c-.013-.009-.029-.017-.043-.025-1.242-.729-3.304-2.872-3.436-2.978 0-.002-.002-.004-.004-.005v.001c-.098-.078-.201-.146-.32-.196-.688-.28-1.467.07-1.738.783-.15.394-.109.814.07 1.16l.017.068c1.66 2.328 4.296 3.485 4.296 3.485.644.264 1.374-.065 1.628-.734.218-.574.012-1.212-.458-1.549" transform="translate(-630 -50) translate(630 50)"/>
                <path fill="#00AB75" d="M21.4 18.674c-.214 0-.6.15-.604.15-5.524 1.722-9.254 7.018-9.196 13.441.112 4.018 1.77 8.904 2.87 10.948.05.108.14.267.194.363.035.082.078.16.127.232.243.359.643.595 1.097.595.234 0 .451-.068.643-.178.416-.237.7-.69.7-1.217 0-.218-.051-.423-.139-.607-.027-.048-.052-.097-.08-.145-1.866-3.312-2.813-6.968-2.693-11.018.14-4.714 3.298-8.529 7.337-9.811.08-.016.158-.042.232-.072.12-.035.474-.272.508-.372.21-.245.343-.565.343-.92 0-.765-.6-1.389-1.34-1.389" transform="translate(-630 -50) translate(630 50)"/>
                <path fill="#1D1C1A" d="M12.74 5.91c7.934-4.452 15.872-4.097 23.805.003.882.455 1.787.771 2.308-.408.457-1.033-.225-1.596-1.055-2.043C33.59 1.197 29.133-.012 24.381 0c-4.578-.04-8.85 1.148-12.847 3.445-.844.485-1.64 1.07-1.007 2.201.561 1 1.398.721 2.213.264M10.168 43.046c-.739 0-1.34.624-1.34 1.39 0 .767.601 1.39 1.34 1.39.739 0 1.34-.623 1.34-1.39 0-.766-.601-1.39-1.34-1.39M27.604 19.678c0-.766-.6-1.39-1.34-1.39-.738 0-1.339.624-1.339 1.39 0 .767.601 1.39 1.34 1.39.738 0 1.34-.623 1.34-1.39M41.999 39.875c-.74 0-1.34.624-1.34 1.39 0 .766.6 1.39 1.34 1.39.739 0 1.34-.624 1.34-1.39 0-.766-.601-1.39-1.34-1.39M31.92 37.014c.739 0 1.34-.624 1.34-1.39 0-.766-.601-1.39-1.34-1.39-.739 0-1.34.624-1.34 1.39 0 .766.601 1.39 1.34 1.39M48.06 25.093c-.738 0-1.339.623-1.339 1.39 0 .766.6 1.39 1.34 1.39.738 0 1.34-.624 1.34-1.39 0-.767-.602-1.39-1.34-1.39M47.414 21.93c0-.766-.6-1.39-1.34-1.39-.738 0-1.339.624-1.339 1.39 0 .766.6 1.39 1.34 1.39.738 0 1.339-.624 1.339-1.39M7.464 9.9c.739 0 1.34-.624 1.34-1.39 0-.767-.601-1.39-1.34-1.39-.739 0-1.34.623-1.34 1.39 0 .766.601 1.39 1.34 1.39" transform="translate(-630 -50) translate(630 50)"/>
                <g>
                    <path d="M0 0.137L3.846 0.137 3.846 8.982 0 8.982z" transform="translate(-630 -50) translate(630 50) translate(0 21.978)"/>
                    <path fill="#1D1C1A" d="M2.506.137c-.5 0-.932.289-1.162.712L1.34.846l-.016.041c-.047.093-.085.191-.11.295C.072 4.327 0 7.592 0 7.592c0 .767.6 1.39 1.34 1.39.632 0 1.161-.459 1.3-1.072l.003-.001V7.9c.021-.1.036-.202.036-.309 0-.048-.01-.094-.014-.142.178-3.122 1.072-5.376 1.072-5.376.07-.168.109-.353.109-.547 0-.767-.601-1.39-1.34-1.39" transform="translate(-630 -50) translate(630 50) translate(0 21.978)"/>
                </g>
                <path fill="#1D1C1A" d="M40.7 30.65c0 3.75-1.44 5.619-3.994 5.562l-.012-.001h-.01c-.05 0-.1.003-.149 0l-.015.018c-.656.09-1.165.668-1.165 1.372 0 .64.42 1.173.987 1.334.017.008.036.015.067.024l.008.001c.011.003.023.003.033.005.028.004.062.007.103.011.048.005.093.015.141.015.018 0 .033-.005.05-.005.271.007.594.005.594.005 4.194-.345 5.701-3.972 5.701-9.21 0-13.06-13.405-21.137-25.098-16.294C6.934 18.046 4.094 28.954 7.085 39.62c.017.093.042.184.075.27.2.507.68.867 1.24.867.08 0 .158-.01.235-.025.162-.03.313-.092.45-.176.39-.243.654-.682.654-1.189 0-.09-.01-.179-.026-.266-.004-.023-.012-.044-.017-.067-.265-1.007-.518-2.018-.711-3.04-2.14-11.32 5.03-21.03 15.552-21.03 9.664 0 16.163 6.263 16.163 15.686M7.41 17.816c3.338-4.48 6.564-6.815 11.149-8.075h.004c.03-.006.059-.018.09-.027.124-.033.243-.08.352-.148.384-.239.645-.67.645-1.169 0-.09-.01-.176-.027-.261-.003-.023-.011-.044-.016-.067-.143-.595-.658-1.04-1.276-1.04-.08 0-.159.01-.236.025-.1.03-.198.063-.297.095-2.15.682-3.932 1.612-5.76 2.75-2.519 1.57-4.525 3.34-6.641 6.166-.303.404-.842.934-1.199 1.503-.179.21-.296.473-.327.766-.074.38.01.76.362 1.118l.04.04c.048.045.098.09.155.135l.018.013c1.425 1.093 2.329-.972 2.964-1.824" transform="translate(-630 -50) translate(630 50)"/>
                <path fill="#1D1C1A" d="M44.106 16.254c-4.875-6.616-11.39-9.816-19.197-9.986-.347.006-1.222 0-1.323 0-.738 0-1.34.624-1.34 1.39 0 .767.602 1.39 1.34 1.39 6.87-.38 13.791 2.573 18.47 8.95V18c.016.024.035.045.051.068.244.338.628.56 1.065.56.737 0 1.335-.622 1.335-1.386 0-.24-.064-.462-.167-.658-.064-.121-.14-.234-.234-.33M36.267 32.903c1.37-.047 1.313-1.217 1.265-2.25-.02-.437-.079-.875-.155-1.307-.63-3.598-2.583-6.852-5.196-8.869l-.052-.04c-.226-.175-.503-.281-.807-.281-.752 0-1.364.635-1.364 1.415 0 .088.01.174.025.258.017.095.042.186.076.274.068.17.168.323.29.453.08.066.159.134.237.203 2.144 1.884 3.955 5.004 4.275 8.147.103 1.008.2 2.038 1.406 1.997M25.972 24.365l-.001-.002-.009-.002.01.004M31.365 47.124c-.74-.277-1.509-.495-2.21-.853-5.66-2.89-8.704-7.62-8.996-14.156-.13-2.923 1.69-4.973 4.237-5.078l.036-.013c.155-.026.3-.08.434-.156.41-.234.69-.681.69-1.2 0-.515-.277-.959-.682-1.194-.178-.104-.38-.167-.597-.175-.016 0-.03-.005-.045-.005-.03 0-.059.008-.088.01-3.407.227-6.15 2.824-6.598 6.35-1.008 7.944 5.483 17.458 12.989 19.053.856.181 1.63.133 1.892-.89.231-.897-.294-1.404-1.062-1.693M27.752 28.096c.017.048.036.094.058.14.139.342.447 1.149.808 2.397.02.128.053.25.104.365.22.509.712.865 1.283.865.246 0 .474-.072.675-.187.436-.249.736-.725.736-1.277 0-.06-.005-.119-.012-.177-.012-.108-.039-.212-.074-.312-.248-1.015-.633-2.204-1.185-3.009-.04-.07-.088-.133-.14-.194-.009-.011-.016-.025-.025-.036-.002-.003-.006-.003-.008-.006-.244-.265-.585-.43-.965-.43-.739 0-1.34.623-1.34 1.39 0 .145.028.283.068.415l-.005.005.022.05" transform="translate(-630 -50) translate(630 50)"/>
                <path fill="#1D1C1A" d="M37.712 42.108c-.182-.106-.387-.17-.608-.178-.076.008-.151.013-.226.02-5.74.518-10.404-3.481-10.901-9.436-.087-1.033-.055-2.24-1.42-2.134-1.26.097-1.27 1.412-1.206 2.453.42 6.724 5.867 11.921 12.471 11.995.429 0 .864-.044 1.299-.108.085-.012.171-.025.257-.04.114-.03.224-.075.326-.133.417-.239.704-.694.704-1.223 0-.524-.283-.977-.696-1.216M134.572 9.505c-.047 3.1-1.057 4.638-3.032 4.638-1.833 0-3.079-2.011-3.079-4.425 0-2.485 1.27-4.402 3.126-4.402h2.985v4.189zm4.8 7.572h.796c2.303 0 3.455-1.396 3.455-4.165V6.333h-1.645v5.846c0 1.088-.118 1.846-.353 2.271-.328.663-.987.994-1.997.994h-.355c-1.904 0-3.008-1.396-3.008-3.762V4.086h-4.983c-2.68 0-4.466 2.366-4.466 5.726 0 3.147 1.787 5.632 4.183 5.632 1.693 0 2.891-.615 3.597-1.822.682 2.295 2.163 3.455 4.49 3.455h.287zM161.912 15.42c-1.598 0-2.515-1.3-2.515-3.146 0-2.107.917-3.337 2.61-3.337 1.527 0 2.397 1.088 2.397 3.123 0 2.248-.823 3.36-2.492 3.36zm-9.12 0l-2.728.024c-.916 0-1.645-.45-2.186-1.349-.446-.734-.657-1.585-.657-2.532 0-.899.258-1.727.752-2.46.564-.829 1.292-1.255 2.185-1.255.87 0 1.528.284 1.998.829.424.473.635 1.065.635 1.75v4.993zm20.64-3.242c0 1.09-.117 1.846-.353 2.272-.329.663-.987.994-1.998.994h-.124v-.024h-.771c.047-.52.07-1.041.07-1.585 0-2.343-.563-4.354-1.668-5.987-1.246-1.869-3.62-3.478-5.453-3.809v1.703c3.008.876 5.523 3.81 5.523 7.761 0 .663-.07 1.303-.211 1.917h-3.456c.729-.851 1.105-1.94 1.105-3.265 0-2.769-1.645-4.59-4.16-4.59-2.586 0-4.255 1.987-4.255 4.614 0 1.324.354 2.413 1.058 3.265H154.483v-4.401c0-3.124-1.622-4.733-4.23-4.733-1.34 0-2.468.52-3.385 1.562-.893 1.041-1.34 2.319-1.34 3.857 0 1.538.423 2.815 1.27 3.833.846 1.018 1.927 1.515 3.243 1.515h2.562c-.4 1.514-1.363 2.295-2.867 2.295h-.212v1.585c2.703-.165 4.301-1.444 4.772-3.88H171.622c2.304 0 3.455-1.397 3.455-4.165V1.767h-1.645v10.411z" transform="translate(-630 -50) translate(630 50)"/>
                <path d="M0 52.89L179.873 52.89 179.873 0 0 0z" transform="translate(-630 -50) translate(630 50)"/>
                <path fill="#1D1C1A" d="M178.228 17.077L179.873 17.077 179.873 1.767 178.228 1.767zM131.119 2.35c.584 0 1.058-.477 1.058-1.066 0-.588-.474-1.065-1.058-1.065-.585 0-1.059.477-1.059 1.065 0 .589.474 1.066 1.059 1.066M134.44 2.35c.584 0 1.058-.477 1.058-1.066 0-.588-.474-1.065-1.059-1.065-.584 0-1.059.477-1.059 1.065 0 .589.475 1.066 1.06 1.066M139.577 18.566c-.584 0-1.058.477-1.058 1.065 0 .589.474 1.066 1.058 1.066.585 0 1.059-.477 1.059-1.066 0-.588-.474-1.065-1.059-1.065M142.898 18.566c-.584 0-1.058.477-1.058 1.065 0 .589.474 1.066 1.058 1.066.584 0 1.059-.477 1.059-1.066 0-.588-.475-1.065-1.059-1.065M99.477 15.704c-1.928 0-3.08-1.514-3.08-3.88 0-2.509 1.082-4.094 3.174-4.094 1.928 0 2.985 1.443 2.985 3.81 0 2.768-1.034 4.164-3.08 4.164zm-12.907 1.94c-1.01 0-1.786-.378-2.327-1.16-.447-.662-.658-1.537-.658-2.602 0-1.16.211-2.059.658-2.745.54-.828 1.363-1.254 2.421-1.254 1.011 0 1.74.378 2.234 1.16.423.639.634 1.49.634 2.555 0 2.698-.987 4.047-2.962 4.047zm-16.245-8.14c-.047 3.1-1.058 4.639-3.032 4.639-1.833 0-3.08-2.012-3.08-4.425 0-2.485 1.27-4.402 3.127-4.402h2.985v4.189zM99.5 6.358c-3.056 0-4.96 2.296-4.96 5.372 0 1.515.4 2.745 1.176 3.691h-4.468c.141-.52.212-1.065.212-1.656 0-1.561-.423-2.84-1.246-3.81-.87-1.017-2.093-1.538-3.62-1.538-1.528 0-2.75.497-3.643 1.514-.87 1.018-1.317 2.296-1.317 3.858 0 .591.07 1.135.188 1.632H78.79c.305-.639.446-1.49.446-2.508V6.334h-1.645v5.845c0 1.088-.118 1.845-.353 2.295-.329.639-.987.97-1.998.97h-.213c-1.905 0-3.009-1.396-3.009-3.762V4.086h-4.983c-2.68 0-4.466 2.366-4.466 5.726 0 3.147 1.786 5.632 4.184 5.632 1.692 0 2.89-.615 3.596-1.822.675 2.27 2.132 3.427 4.415 3.452v.003H82.528c.869 1.372 2.233 2.058 4.042 2.058 1.74 0 3.056-.686 3.95-2.058h8.956c2.986 0 4.89-2.295 4.89-5.372 0-3.218-1.88-5.348-4.866-5.348zM114.756 12.178c0 1.09-.118 1.846-.353 2.272-.28.565-.803.887-1.576.97h-3.525V6.334h-1.646v9.039c0 2.792-1.104 3.999-3.29 3.999v1.585c2.726-.165 4.324-1.443 4.771-3.88h4.043c2.145-.104 3.22-1.493 3.22-4.165V1.767h-1.644v10.411zM119.551 17.077L121.196 17.077 121.196 1.767 119.551 1.767zM66.982 2.35c.584 0 1.058-.477 1.058-1.066 0-.588-.474-1.065-1.058-1.065-.585 0-1.059.477-1.059 1.065 0 .589.474 1.066 1.059 1.066M70.302 2.35c.585 0 1.059-.477 1.059-1.066 0-.588-.474-1.065-1.059-1.065-.584 0-1.058.477-1.058 1.065 0 .589.474 1.066 1.058 1.066M97.829 4.75c.584 0 1.058-.477 1.058-1.065 0-.589-.474-1.066-1.058-1.066-.584 0-1.059.477-1.059 1.066 0 .588.475 1.065 1.059 1.065M101.151 4.75c.585 0 1.059-.477 1.059-1.065 0-.589-.474-1.066-1.059-1.066-.584 0-1.058.477-1.058 1.066 0 .588.474 1.065 1.058 1.065M75.066 18.566c-.585 0-1.06.477-1.06 1.065 0 .589.475 1.066 1.06 1.066.584 0 1.058-.477 1.058-1.066 0-.588-.474-1.065-1.058-1.065M78.387 18.566c-.585 0-1.06.477-1.06 1.065 0 .589.475 1.066 1.06 1.066.584 0 1.058-.477 1.058-1.066 0-.588-.474-1.065-1.058-1.065" transform="translate(-630 -50) translate(630 50)"/>
                <path fill="#231F20" d="M73.997 47.284c0 2.418-2.478 3.722-4.81 3.722-3.175 0-4.837-1.858-4.837-3.694V34.06h-1.9v13.224c0 3.642 3.47 5.606 6.737 5.606 4.358 0 6.71-2.874 6.71-5.578V34.06h-1.9v13.224zM83.545 45.208l3.118-8.812 3.048 8.812h-6.166zM85.92 33.78l-7.446 18.914h2.019c.485-1.266 1.214-3.06 2.227-5.481l.122-.289h7.61l2.336 5.77h2L87.342 33.78H85.92zM99.153 44.32L107.973 44.32 107.973 42.407 99.153 42.407 99.153 35.945 108.168 35.945 108.168 34.06 97.253 34.06 97.253 52.694 108.196 52.694 108.196 50.81 99.153 50.81zM125.579 44.311h-4.754v-8.366h4.754c2.75 0 4.002 2.176 4.002 4.197 0 2.865-2.075 4.17-4.002 4.17m0-10.28h-6.654v18.662h1.9V46.17h4.754c4.017 0 5.846-3.139 5.846-6.055 0-2.93-1.83-6.082-5.846-6.082M136.654 45.208l3.118-8.812 3.048 8.812h-6.166zm2.375-11.428l-7.447 18.914h2.02c.484-1.266 1.214-3.06 2.227-5.481l.122-.289h7.609l2.337 5.77h2L140.45 33.78h-1.421zM156.742 42.377c-1.972-.186-4.67-.44-4.84-2.902-.07-.83.128-1.572.57-2.143.779-1.009 2.234-1.632 3.894-1.667h.099c1.562 0 3.597.65 4.238 2.478l1.875-.076c-.713-3.12-3.7-4.23-6.063-4.23-2.266 0-4.384.927-5.527 2.42-.714.934-1.048 2.07-.97 3.289l.01.084c.276 3.699 3.488 4.332 6.479 4.636 1.904.191 4.274.43 4.694 2.298.063.285.095.546.095.776 0 2.295-2.459 3.665-4.837 3.665-2.017 0-4.31-1.056-4.643-3.017h-.008l-.012-.055-1.91.038.003.045c.243 2.348 2.618 4.847 6.543 4.847 3.325 0 6.764-2.056 6.764-5.495 0-.343-.047-.779-.13-1.195-.653-2.724-3.563-3.448-6.324-3.796M179.593 46.182c-.66-2.735-3.572-3.459-6.333-3.806-1.967-.185-4.663-.438-4.834-2.901-.068-.83.13-1.572.572-2.143.778-1.009 2.234-1.632 3.894-1.667h.098c1.562 0 3.597.65 4.238 2.478l1.875-.076c-.713-3.12-3.7-4.23-6.063-4.23-2.266 0-4.384.927-5.527 2.42-.713.934-1.048 2.07-.97 3.289l.01.085c.276 3.698 3.489 4.331 6.479 4.635 1.904.191 4.274.43 4.695 2.298.063.285.094.546.094.776 0 2.295-2.459 3.665-4.836 3.665-2.018 0-4.311-1.056-4.644-3.017h-.007l-.012-.055-1.91.038.002.045c.243 2.348 2.618 4.847 6.543 4.847 3.325 0 6.765-2.056 6.765-5.495 0-.34-.047-.773-.129-1.186" transform="translate(-630 -50) translate(630 50)"/>
            </g>
        </g>
    </g>
</svg>
